<svg xmlns="http://www.w3.org/2000/svg" width="151.181" height="151.181" viewBox="0 0 40 40"><g transform="translate(0 -257)"><circle style="display:inline;opacity:1;fill:#252c61;fill-opacity:1;fill-rule:evenodd;stroke:none;stroke-width:.108894;stroke-linecap:round;stroke-linejoin:round;stroke-miterlimit:4;stroke-dasharray:none;stroke-dashoffset:0;stroke-opacity:1" cx="20" cy="277" r="19.5"></circle><path d="M23.486 277.236c.248.244.526.455.828.627.299.17.638.259.982.256.468 0 .823-.12 1.066-.357.243-.237.365-.536.365-.897 0-.259-.068-.483-.204-.674a1.356 1.356 0 0 0-.525-.441l-.324-.14a20.759 20.759 0 0 1-.553-.247 99.14 99.14 0 0 0-.576-.263 6.397 6.397 0 0 1-.386-.186 5.933 5.933 0 0 1-.245-.147 1.28 1.28 0 0 1-.316-.294 1.888 1.888 0 0 1-.393-1.2c0-.33.052-.624.155-.882a1.797 1.797 0 0 1 1.08-1.068c.252-.093.524-.14.814-.14.374 0 .713.052 1.017.155.326.113.643.253.947.418l-.295.913a3.202 3.202 0 0 0-.814-.487 2.422 2.422 0 0 0-.925-.178c-.28 0-.539.09-.772.27-.234.182-.35.442-.35.783 0 .185.027.34.084.464.063.133.157.25.273.34.126.104.295.207.505.31.257.125.516.243.779.356.246.106.49.22.73.34.215.108.411.249.582.419.163.165.29.361.378.588.09.227.134.516.134.867 0 .371-.061.694-.183.967a1.9 1.9 0 0 1-.484.674c-.209.18-.452.314-.715.394a2.89 2.89 0 0 1-.877.132c-.44 0-.819-.062-1.137-.186a4.063 4.063 0 0 1-1.01-.603z" style="fill:#fff;fill-opacity:1;fill-rule:nonzero;stroke:none;stroke-width:.264583"></path><g style="display:inline;fill:#fff;fill-opacity:1"><path d="M0 0c-1.418.641-2.482 1.309-3.541 2.459C-4.881 3.916-5.4 5.629-5.4 7.482c0 2.009.65 3.702 1.951 5.081 1.299 1.378 2.933 2.068 4.902 2.068 2.207 0 4.115-.897 5.733-2.688 1.613-1.794 2.246-3.956 2.421-6.47.518-7.389-3.523-14.43-11.701-17.459l-2.488 4.445c3.465 1.893 6.455 4.525 6.121 6.16C1.334-.375.373-.168 0 0" style="fill:#fff;fill-opacity:1;fill-rule:nonzero;stroke:none" transform="matrix(.40341 0 0 -.40463 32.183 284.221)"></path></g><g style="display:inline;fill:#fff;fill-opacity:1"><path d="M0 0c2.088 0 3.842-.709 5.26-2.127 1.418-1.418 2.127-3.171 2.127-5.258 0-2.127-.721-3.949-2.158-5.465-1.438-1.516-3.18-2.275-5.229-2.275-2.008 0-3.721.759-5.139 2.275-1.418 1.516-2.127 3.338-2.127 5.465s.698 3.889 2.096 5.288C-3.771-.7-2.047 0 0 0" style="fill:#fff;fill-opacity:1;fill-rule:nonzero;stroke:none" transform="matrix(.40341 0 0 -.40463 33.016 267.766)"></path></g><path d="M13.097 278.056c.31 0 .57-.09.782-.27.211-.181.38-.416.507-.705s.218-.606.275-.952c.056-.346.084-.689.084-1.03 0-.134-.01-.366-.028-.696a4.628 4.642 0 0 0-.176-1.014 2.433 2.44 0 0 0-.479-.913c-.22-.263-.533-.395-.937-.395a1.347 1.351 0 0 0-.725.217c-.23.144-.433.35-.606.619-.174.269-.31.591-.409.967a4.992 4.992 0 0 0-.147 1.262c0 .351.04.7.12 1.045a3.398 3.409 0 0 0 .359.936c.16.28.354.503.584.674.23.17.495.255.796.255m-1.845-10.201v4.706c0 .031.009.062.028.092.018.032.042.047.07.047.047 0 .077-.013.091-.039a6.748 6.768 0 0 1 .288-.541c.093-.16.208-.307.343-.442.136-.134.297-.245.484-.332a1.61 1.61 0 0 1 .688-.132c.178 0 .404.041.68.124.276.083.543.255.8.519.257.263.477.642.66 1.137.182.496.273 1.161.273 1.997 0 .134-.005.31-.014.527a5.828 5.846 0 0 1-.077.704 7.43 7.452 0 0 1-.175.781 3.618 3.629 0 0 1-.295.743c-.15.28-.314.499-.491.658-.178.16-.353.277-.526.349a1.742 1.748 0 0 1-.485.131 3.812 3.824 0 0 1-.378.023 1.545 1.55 0 0 1-.575-.1 1.786 1.791 0 0 1-.45-.255 1.995 1.995 0 0 1-.336-.333 3.905 3.917 0 0 1-.239-.333.965.968 0 0 0-.056-.1 4.213 4.213 0 0 1-.084-.148 1.696 1.696 0 0 0-.084-.14c-.028-.04-.047-.061-.056-.061a.211.212 0 0 0-.07.016c-.028.01-.042.056-.042.139v1.393l-.898-.557v-10.016zM7.253 274.868c-.365 0-.727.015-1.087.046a3.123 3.132 0 0 0-1.045.28 2.334 2.341 0 0 0-.864.65c-.229.278-.343.624-.343 1.037 0 .082.014.193.042.332.028.14.084.277.168.41.084.135.203.248.358.34.154.094.362.14.624.14.215 0 .435-.056.66-.17.224-.113.435-.248.631-.403.196-.154.37-.31.52-.464.149-.155.261-.278.336-.371zm.028-1.548c0-.124-.007-.258-.02-.402a.9.902 0 0 0-.141-.403.933.933 0 0 0-.386-.317c-.178-.088-.426-.132-.744-.132-.383 0-.731.075-1.045.225a6.822 6.843 0 0 0-.975.58l-.393-.975c.28-.144.526-.263.737-.356.21-.093.409-.168.596-.224.187-.057.37-.096.547-.116a5 5 0 0 1 .87-.024 2.416 2.424 0 0 1 .82.193c.146.062.284.145.415.248a1.667 1.667 0 0 1 .652 1.246c.005.13.007.246.007.349v4.102c0 .207.026.359.077.457a.74.74 0 0 0 .148.208.429.429 0 0 0 .182.094c.056.01.182.015.38.015v.851a6.96 6.96 0 0 1-.633-.023.985.985 0 0 1-.435-.147.932.935 0 0 1-.245-.24 1.389 1.393 0 0 1-.168-.31 2.144 2.15 0 0 1-.098-.317 1.15 1.153 0 0 1-.036-.247.66.66 0 0 0-.014-.17c-.01 0-.016-.003-.02-.009-.005-.005-.013-.007-.022-.007-.019 0-.033.005-.042.016a6.654 6.654 0 0 1-.512.588 3.405 3.415 0 0 1-.54.449 2.54 2.547 0 0 1-.61.294 2.36 2.368 0 0 1-.737.108c-.412 0-.723-.062-.933-.186a1.96 1.96 0 0 1-.513-.418 1.903 1.909 0 0 1-.252-.387 2.09 2.09 0 0 1-.147-.386 2.818 2.818 0 0 1-.07-.341 1.979 1.985 0 0 1-.021-.248 2.41 2.41 0 0 1 .554-1.587c.154-.18.316-.327.484-.44.169-.114.309-.197.421-.248a4.003 4.003 0 0 1 1.41-.395c.463-.036.947-.054 1.452-.054z" style="display:inline;fill:#fff;fill-opacity:1;fill-rule:nonzero;stroke:none;stroke-width:.40402"></path><path d="M20.947 274.233v-.278c0-.114-.01-.238-.028-.372-.02-.14-.048-.28-.084-.418a1.785 1.785 0 0 0-.168-.418 1.24 1.24 0 0 0-.548-.55 1.504 1.504 0 0 0-.66-.162c-.402 0-.761.168-1.08.503-.318.335-.51.9-.575 1.695zm-3.17.743c0 .34.02.692.063 1.052.036.342.123.676.259.992.131.299.313.544.547.734.234.192.543.287.926.287.318 0 .596-.07.835-.209.238-.139.456-.343.652-.611l.646.557c-.3.413-.615.704-.948.875-.332.17-.736.255-1.213.255-.45 0-.842-.106-1.178-.317a2.717 2.717 0 0 1-.842-.837 4.077 4.077 0 0 1-.513-1.168 5.027 5.027 0 0 1-.175-1.316c0-.454.035-.92.105-1.4.07-.48.237-.953.499-1.417.27-.475.586-.805.947-.99a2.403 2.403 0 0 1 1.115-.28c.514 0 .926.114 1.235.341.31.228.555.532.715.882.169.362.28.77.337 1.223.056.455.093.903.112 1.347z" style="fill:#fff;fill-opacity:1;fill-rule:nonzero;stroke:none;stroke-width:.264583"></path></g></svg>