<svg xmlns="http://www.w3.org/2000/svg" id="Logo_Gallica" x="0" y="0" version="1.1" viewBox="0 0 1567.6 321.8" xml:space="preserve">
  <style>
    .st0{fill:#7c7572}.st1{fill:#fbfbfb}
  </style>
  <path d="M0 0h712.9v321.9H0z" class="st0"/>
  <path d="M712.8 0h854.8v321.9H712.8zM130.5 171.5c1 .7 1.2 2 1.2 2.9.7 12.2 2.7 40.9 15 79.2h-24.6c-1.7 0-2.7-.7-3.2-2.4-3-8.8-14-41.6-15.5-82.9l-7.6-7.3 7.6-7.3c1.5-41.3 12.6-74.1 15.5-82.9.5-1.7 1.5-2.4 3.2-2.4h24.6c-12.3 38.4-14.3 67-15 79.2 0 1-.2 2.2-1.2 2.9L118.4 161l12.1 10.5zm122.6-98.4c29.8 0 54.4 13.2 54.4 42.6 0 20.3-9.6 34-29.5 38.9 24.6 3.7 40.6 20.3 40.6 42.6 0 44.5-35.2 51.6-68 51.6h-49.5V73.1h52zM241.3 146c22.2 0 38.9-3.7 38.9-26.4 0-20.3-17.2-24-33.2-24h-19.2V146h13.5zm3.7 22h-17.2v58.5h21.4c23.9 0 41.1-3.7 41.1-29.4 0-26.6-23.9-29.1-45.3-29.1m124.6-57.4c2 4.4 3 10.8 3 19.3 8.4-14.2 24.1-22 43.6-22 15 0 26.6 5.1 34.2 13.7 7.4 8.3 11.3 19.8 11.3 43.3v83.9h-26.6v-78.3c0-18.1-2.2-25.7-6.9-31.1-4.7-4.9-11.3-8.1-20.4-8.1-10.6 0-19.7 4.6-25.6 13.5-4.9 7.1-7.9 16.4-7.9 37.4v66.5h-26.6v-96.9c0-13.5-.5-33-4.7-41.3l26.6.1zm220.6 36.6v23.5h-66.5v78h-28.1V73.1h101v23.2h-73.9v50.9h67.5z" class="st1"/>
  <path d="M916.2 160.7v71.4c-2 1.5-7.4 5.1-13.5 8.3-7.1 3.4-24.9 11-47.5 11-31 0-48.3-13.9-56.6-23.5-9.4-10.8-20.9-31.8-20.9-66.3 0-9.8.2-56.2 35.9-78.5 6.4-3.9 19.9-10.8 39.2-10.8 21.9 0 43.6 8.8 54.2 29.1 3.2 5.9 5.7 12.5 6.9 25.9H890c-1.2-6.1-4.2-24-23.2-29.8-5.7-2-11.6-2.2-13.5-2.2-7.1 0-23.6 1.7-35.2 18.1-9.4 13.5-12.3 33-12.3 48.7 0 31.3 11.3 66 49.7 66 12.6 0 27.1-4.4 37.9-11.3v-35.2h-35.2v-21l58 .1zM947.3 160c1.2-9.3 3.4-14.2 5.7-17.9 11.8-19.8 41.1-19.6 45.1-19.6 3 0 18.5 0 29.5 6.6 2.7 1.7 8.9 5.9 12.1 13.9 2.2 5.6 3.4 14.2 3.2 27.4v48.2c0 15.2.7 22.5 3.9 29.6h-23.6c-2.2-8.1-2.2-10.8-2.2-15.2-4.7 8.1-14 17.9-35.2 17.9-4.7 0-26.3.3-37.2-16.4-2.2-3.2-5.4-9.1-5.4-18.6 0-6.4 1.7-21.3 17-31.3 15.3-9.8 40.6-13.2 57.9-16.4v-3.4c0-5.9-.2-8.1-1.2-11-2.9-8.6-12.1-10.8-20.2-10.8-17.7 0-22.9 8.6-24.4 16.9l-25 .1zm70.6 25.9c-22.2 3.4-36.2 6.8-43.3 14.2-3.2 3.4-5.2 8.6-5.2 13.2 0 2.9 1 6.4 2.5 8.8 2.5 3.7 7.9 8.8 18.7 8.8 3.4 0 14.5-.7 21.7-9.8 4.7-6.1 5.4-11.8 5.7-25.7l-.1-9.5zM1079.3 74.4h26.3v173.9h-26.3zM1142.1 74.4h26.3v173.9h-26.3zM1229.5 76.6c3.2 2.9 4.7 8.1 4.7 12.2 0 9.5-6.6 15.9-16.2 15.9-1.7 0-4.4 0-8.1-1.9-7.1-3.7-7.9-11.3-7.9-13.7 0-3.7 1.2-6.4 1.7-7.6 3.4-7.8 11.6-8.8 14.3-8.8 3.9-.3 8.5 1.2 11.5 3.9m1.7 171.7h-26.3v-123h26.3v123zM1338.8 165.9c-.7-5.6-2.7-12.2-6.6-16.6-2.5-2.9-7.4-6.6-16.5-6.6-23.9 0-29.8 26.4-29.8 44.5 0 11.5 2.7 28.4 11.8 36.9 3 2.7 8.4 6.9 18.2 6.9 21.4 0 23.4-20.1 24.1-25.7l24.9.3c0 .5-.3 5.4-1 8.8-2.5 10.5-8.6 21.5-17.2 28.1-5.2 3.9-15.3 9.3-31 9.3-8.6 0-17.2-1.7-24.9-5.6-22.7-11.3-31.3-35.7-31.3-59.2 0-3.4.2-12.2 2.7-21.8 2-7.8 9.9-32.8 35.9-40.9 7.6-2.4 15.5-2.4 18.2-2.4 12.8 0 24.1 3.4 33.5 12.2 2.5 2.4 6.6 6.6 9.8 14.2 2 4.2 3.2 8.3 4.4 17.6h-25.2zM1390.8 160c1.2-9.3 3.4-14.2 5.7-17.9 11.8-19.8 41.1-19.6 45.1-19.6 3 0 18.5 0 29.6 6.6 2.7 1.7 8.9 5.9 12.1 13.9 2.2 5.6 3.4 14.2 3.2 27.4v48.2c0 15.2.7 22.5 3.9 29.6h-23.6c-2.2-8.1-2.2-10.8-2.2-15.2-4.7 8.1-14 17.9-35.2 17.9-4.7 0-26.3.3-37.2-16.4-2.2-3.2-5.4-9.1-5.4-18.6 0-6.4 1.7-21.3 17-31.3 15.3-9.8 40.6-13.2 57.9-16.4v-3.4c0-5.9-.2-8.1-1.2-11-3-8.6-12.1-10.8-20.2-10.8-17.7 0-22.9 8.6-24.4 16.9l-25.1.1zm70.7 25.9c-22.2 3.4-36.2 6.8-43.3 14.2-3.2 3.4-5.2 8.6-5.2 13.2 0 2.9 1 6.4 2.5 8.8 2.5 3.7 7.9 8.8 18.7 8.8 3.4 0 14.5-.7 21.7-9.8 4.7-6.1 5.4-11.8 5.7-25.7l-.1-9.5z" class="st0"/>
</svg>
